<?xml version="1.0" encoding="utf-8"?>
<!-- Generator: Adobe Illustrator 16.0.0, SVG Export Plug-In . SVG Version: 6.00 Build 0)  -->
<!DOCTYPE svg PUBLIC "-//W3C//DTD SVG 1.1//EN" "http://www.w3.org/Graphics/SVG/1.1/DTD/svg11.dtd">
<svg version="1.1" id="Layer_1" xmlns="http://www.w3.org/2000/svg" xmlns:xlink="http://www.w3.org/1999/xlink" x="0px" y="0px"
	 width="792.796px" height="716px" viewBox="0 0 792.796 716" style="enable-background:new 0 0 792.796 716;" xml:space="preserve"
	>
<style type="text/css">
<![CDATA[
	.st0{fill-rule:evenodd;clip-rule:evenodd;fill:#72D694;}
	.st1{fill-rule:evenodd;clip-rule:evenodd;fill:#DF9A4D;}
	.st2{fill-rule:evenodd;clip-rule:evenodd;fill:none;stroke:#94662B;stroke-width:14;stroke-miterlimit:10;}
	.st3{fill-rule:evenodd;clip-rule:evenodd;fill:#F9FCF7;stroke:#666666;stroke-width:2;stroke-miterlimit:10;}
	.st4{fill-rule:evenodd;clip-rule:evenodd;fill:#F7CA6E;}
	.st5{fill-rule:evenodd;clip-rule:evenodd;fill:#F9FCF7;}
	.st6{fill-rule:evenodd;clip-rule:evenodd;fill:#FF9933;stroke:#666666;stroke-width:2;stroke-miterlimit:10;}
	.st7{fill-rule:evenodd;clip-rule:evenodd;fill:#F7CA6E;stroke:#666666;stroke-width:3;stroke-miterlimit:10;}
]]>
</style>
<metadata><?xpacket begin="﻿" id="W5M0MpCehiHzreSzNTczkc9d"?>
<x:xmpmeta xmlns:x="adobe:ns:meta/" x:xmptk="Adobe XMP Core 5.3-c011 66.145661, 2012/02/06-14:56:27        ">
   <rdf:RDF xmlns:rdf="http://www.w3.org/1999/02/22-rdf-syntax-ns#">
      <rdf:Description rdf:about=""
            xmlns:xmp="http://ns.adobe.com/xap/1.0/"
            xmlns:xmpGImg="http://ns.adobe.com/xap/1.0/g/img/">
         <xmp:CreatorTool>Adobe Illustrator CS6 (Macintosh)</xmp:CreatorTool>
         <xmp:CreateDate>2026-03-06T14:52:48-08:00</xmp:CreateDate>
         <xmp:MetadataDate>2026-03-06T14:52:48-08:00</xmp:MetadataDate>
         <xmp:ModifyDate>2026-03-06T14:52:48-08:00</xmp:ModifyDate>
         <xmp:Thumbnails>
            <rdf:Alt>
               <rdf:li rdf:parseType="Resource">
                  <xmpGImg:width>256</xmpGImg:width>
                  <xmpGImg:height>232</xmpGImg:height>
                  <xmpGImg:format>JPEG</xmpGImg:format>
                  <xmpGImg:image>/9j/4AAQSkZJRgABAgEASABIAAD/7QAsUGhvdG9zaG9wIDMuMAA4QklNA+0AAAAAABAASAAAAAEA&#xA;AQBIAAAAAQAB/+4ADkFkb2JlAGTAAAAAAf/bAIQABgQEBAUEBgUFBgkGBQYJCwgGBggLDAoKCwoK&#xA;DBAMDAwMDAwQDA4PEA8ODBMTFBQTExwbGxscHx8fHx8fHx8fHwEHBwcNDA0YEBAYGhURFRofHx8f&#xA;Hx8fHx8fHx8fHx8fHx8fHx8fHx8fHx8fHx8fHx8fHx8fHx8fHx8fHx8fHx8f/8AAEQgA6AEAAwER&#xA;AAIRAQMRAf/EAaIAAAAHAQEBAQEAAAAAAAAAAAQFAwIGAQAHCAkKCwEAAgIDAQEBAQEAAAAAAAAA&#xA;AQACAwQFBgcICQoLEAACAQMDAgQCBgcDBAIGAnMBAgMRBAAFIRIxQVEGE2EicYEUMpGhBxWxQiPB&#xA;UtHhMxZi8CRygvElQzRTkqKyY3PCNUQnk6OzNhdUZHTD0uIIJoMJChgZhJRFRqS0VtNVKBry4/PE&#xA;1OT0ZXWFlaW1xdXl9WZ2hpamtsbW5vY3R1dnd4eXp7fH1+f3OEhYaHiImKi4yNjo+Ck5SVlpeYmZ&#xA;qbnJ2en5KjpKWmp6ipqqusra6voRAAICAQIDBQUEBQYECAMDbQEAAhEDBCESMUEFURNhIgZxgZEy&#xA;obHwFMHR4SNCFVJicvEzJDRDghaSUyWiY7LCB3PSNeJEgxdUkwgJChgZJjZFGidkdFU38qOzwygp&#xA;0+PzhJSktMTU5PRldYWVpbXF1eX1RlZmdoaWprbG1ub2R1dnd4eXp7fH1+f3OEhYaHiImKi4yNjo&#xA;+DlJWWl5iZmpucnZ6fkqOkpaanqKmqq6ytrq+v/aAAwDAQACEQMRAD8A6TmsebdirsVdirsVdirs&#xA;VdirsVdirsVdirsVdirsVdirsVdirsVdirsVdirsVdirsVdirsVdirsVdirsVdirsVdirsVdirsV&#xA;dirsVdirsVdiqya4ggT1J5FiQdWchR95xJplCEpGgLKT3fnLQreoWVp2HaJSfxbiPxys5ohz8fZW&#xA;eXSvelNx+YPUW9n8mkf/AI1A/jlZz+TnQ7E/nS+QUP8AE/my6/3mtKA9DHC7fieWDxJnkGz+T9LD&#xA;6pfOQd63n6boJVHhxiTr8wMbyFeHQx7vtLvqnn/+aT/kbF/zVjWRfE0Pl8pO+qef/wCaT/kbF/zV&#xA;jWRfE0Pl8pO9Xz/D2lYD/Jik6fQcbyBeHQy7vtDX+JvNtr/vTa1HcyQsv4rxx8SY5hf5P0s/pl8p&#xA;BEW/5gnYXNn82jf/AI1YfxwjP3hrn2J/Nl8wmtp5y0K4oGlaBj2lUj8RyH45YM0S4OXsrNHpfuTm&#xA;G4gnT1IJFlQ9GQhh94ywG3AnCUTRFFfixdirsVdirsVdirsVdirsVdirsVdirsVdirsVdirsVdiq&#xA;Uan5p0iwqjSetMNvSi+Ig+56DK5ZQHP0/Z2XLuBQ7yx2XzV5g1OQw6bAYlP++xzenu5FB9wyo5ZS&#xA;5O1j2bgwi8hv37fYug8l6xeP6upXXAnrUmWT9dPxxGEnmifa2LGKxx/QE5tPJWiQUMivcMO8jUH3&#xA;Lx/HLBhiHX5e1s0uR4fcm1vp1hbU+r28cVO6KAfvAywRAcHJnnP6iSiMLU7FXYq7FXYq7FVC40+x&#xA;uf8Aei3jl93UE/eRgMQW2GacPpJCUXfkrRJ6mNHt2PeNiR9zcsrOGJc7F2tmjzPF70mn8laxZv62&#xA;m3Qdh0oTFJ+un45WcJHJ2EO1sWQVkj+kLYvNXmDTJBDqUBlUf78HB6ezgUP3HEZZR5pl2bgzC8Zr&#xA;3b/YyLTPNOkX9EWT0Zjt6Uvwkn2PQ5bHKC6rUdnZcW5FjvCb5Y4DsVdirsVdirsVdirsVdirsVdi&#xA;rsVdirsVSzV/MWnaYtJn5z0+GBN2+nw+nITyCLmaXQ5M3Ibd7FZNT8yeYZGhtEMVtWjKh4oB/lyH&#xA;r8vwygylPk7uOn0+lFzNy/HIfj3ptpfkaygAkvn+sy/77Wqxj+LZZHCBzcHUdsTltD0j7WSQwQwR&#xA;iOGNY4x0RAFH3DLgKdRKZkbJsr8WLsVdirsVdirsVdirsVdirsVdirsVWTQQzxmOaNZIz1RwGH3H&#xA;Ei2UZmJsGixvVPI1lODJYv8AVpf99tVoz/FcplhB5O30/bE47T9Q+1KY9T8yeXpFhu0Mtt0VXPJS&#xA;P8iQVp8vwysSlDm50tPp9ULgal+OYZVpHmLTtTUCF+E/7UD7N9HiPll8Mgk6TVaHJh5jbvTPJuG7&#xA;FXYq7FXYq7FXYq7FXYq7FVssscUbSSsEjQVZ2NAB7nEllGJkaHNh+secLi5l+paMrEuePrgEux/4&#xA;rXt8+uY88t7Rd9pey4wHHm+XT4r9H8klmFzqzFnY8vq4NTU/zt/T78YYepY6rtavTi5d/wCoMshh&#xA;ihjWKJBHGooqKKAD5DMgB0cpGRsmyvxYuxV2KuxV2KuxV2KuxV2KuxV2KuxV2KuxV2KuxVZNDFNG&#xA;0UyLJG2zIwBB+g4kWyjIxNg0WJ6x5JZWNzpLFXU8vq5NDX/Ib+v35jzw9Q7zS9rX6cvLv/WFmj+c&#xA;bi2k+p6wrAoePrkEOp/4sXv8+uMMtbFlquy4zHHh+X6mYRyRyxrJGweNhVWU1BHsRmRboJRINHmu&#xA;xQ7FXYq7FXYq7FXYqhtQ1G00+2a4uX4oNgP2mPgo7nBKQA3bsGCWWXDEbsJnutZ80XnoQL6dohrx&#xA;r8Cj+Zz3bMYkzL0UMeHRw4pbz+34Ms0by/Y6VH+6XncEUknb7R9h4DL4YxF0er1s8x3+nuTPJuG7&#xA;FXYq7FXYq7FXYq7FXYq7FXYq7FXYq7FXYq7FXYq7FXYq7FUs1ry/Y6rF+9Hp3Cj93Oo+Iex8RkJ4&#xA;xJzNJrZ4TtvHuYnBd6z5XvPQnX1LRzXhU8GH8yHscoBlAu8njw6yHFHaf2/Fm2n6jaahbLcWz8kO&#xA;xH7SnwYdjmTGQI2edz4JYpcMhuicLS7FXYq7FXYqgtW1a10y1M85qTtHGPtO3gP4nIykIhyNNppZ&#xA;pcMf7GG2tnqvmi/NxcMY7RDQsPsqOvBAepzHAMy9Bky4tHDhjvI/iyzixsbWxt1t7aMRxr2HUnxJ&#xA;7nMmMQOTzmbNLJLikbKvhanYq7FXYq7FXYq7FXYq7FXYq7FXYq7FXYq7FXYq7FXYq7FXYq7FXYqo&#xA;Xtja3tu1vcxiSNux6g+IPY4DEHm24s0scuKJosHurPVPK9+Lm2YyWjmgY/ZYdeDjscxiDA29Hjy4&#xA;tZDhltIfiwzLSdXtNTtRNA1GG0sRPxIfA/wOZEJiQdBqdLPDLhl8+9G5JxnYq7FUJquqW2m2bXM5&#xA;2GyIOrN2UZGUgBbfptPLLPhiwuxsdR8z6i11dMUtENGYdAOvpx175jxBmbL0ObNj0ePhj9R/Flnd&#xA;tbQW0CQQII4oxRVHbMoCnmsmQzJlI2SqYsHYq7FXYq7FXYq7FXYq7FXYq7FXYq7FXYq7FXYq7FXY&#xA;q7FXYq7FXYq7FXYqp3NtBcwPBOgkikFGU98SLZ48hgRKJohgl9Y6j5Y1Jbu1Je1c0Vj0IO5jemYs&#xA;omBsPS4c2PWY+CW0vxuGZ6TqttqdotxAfaSM/aRvA5kRkJC3n9TppYZ8MkZknHUru6gtbeS4nbhF&#xA;GKs2AmhbPHjlOQjHmWCKt/5q1gk1jtIvujSvT3dv89hmLvMvSkw0WLvmftP6gzu0tbe0t0t7dAkU&#xA;Yoqj/PrmUBTzWTJKcjKRslVwsHYq7FXYq7FXYq7FXYq7FWmZVUsxCqNyTsBikBCx35uTTT7eS97e&#xA;pGAsX/I1yqH/AGJORnkjD6jTnYOzsuTpQ80Uml69LQvJbWgP7ID3DU+dYRX6DmLLXwHIE/Z+t2eP&#xA;sMfxSVR5euj9vVJh4+nHAv8AxJJMqPaB6RH2uSOx8PW3Hy/dD+71OY+Hqxwt9/BI8R2gesR9qnsf&#xA;D0tSfTNeh3SS2ux/KQ9u1PnWYE/dlsddA8wR9v6nFydhj+GXzQ0l+bY0v4JLL/iyQAxf8jULIP8A&#xA;ZEZlQyRn9Jt1ubs7Lj5ix5IlWVlDKQyncEbgjJOC3ih2KuxV2KuxV2KuxV2KuxVSurWC6t3t50Dx&#xA;SCjKcBFs8eSUJCUdiGCSJf8AlXVwyVks5elekieB/wApa5i7wL0sTDW4qO0x9h/UWdWd3BeW0dzA&#xA;3OKQVU/wPuMygbFvN5cUoSMZcwhb7y1L5jhurKO6MGpQ0l06yagiuUVayfGf92AnZew+dVt8ETj5&#xA;u17MlGHqG8uq/R9OttPsltoQQVJExYcXMg2bkDuCCKUPTKhj4dnA1maeTITLmjcLiuxV2KuxV2Ku&#xA;xV2KuxV2KoYXM9zM1tp0X1iZDxllJ4wxnwd96n/JWp+WQyZYwFyP63YaTs+ebflFH23ly3JWTUn+&#xA;vzg1CuOMKn/JiqR9LVPvmty62Uto+kfjq9Hpuz8eLkLPem4AAoNgOgzDc1vFXYq7FXYq0QCCCKg7&#xA;EHFUnufLcAZptNc2Mx3KKKwOf8qLYD5rQ5mYtbKO0vUPt+bhans/Hl5iigfrU1vMttqMX1adzSKQ&#xA;HlDKf8h9t/8AJahzZY8kZi4n9bzer7Pnh35x70Tk3AdirsVdirsVdirsVdirsVQOs2Nre2D29wpb&#xA;mQIeA5P6p2Tgo3LEmlB1xOPj2cnSZZwyAw5usPKk/lq2tbee79XUbmst9YLQx28ZX4DzFf3lRSnQ&#xA;/wCxqbPAEI+bse05xn6jtLojJIw4X4mR0YPFKh4ujrurKw6EZGMiDYdRCZibCPZ5NZBYIq+Y4lrJ&#xA;GKJHqESD7SdlnUdv+NaFcmhkHm7IiOeN8pBARSpInJa9SGUghlYGhVgdwQdiDmKQQaLrJwMTRXYG&#xA;LsVdirsVdirsVaZlVSzEKqirMdgAO5xSAo2lpc6vRyXttLPRhVJbgf5J6pGfHq3ag3OLqNUMe0d5&#xA;fd+13+g7K/iyfJkNvbwW0KQQRrFDGKJGgoAPkM1MpGRs83oAANgqYFdirsVUpZiskUMUbT3U7cYL&#xA;eOnNz360AVRuzHYZdg08ssqiwyZBAWXRyuZZbeaNoLuAgTW705LX7LAjZlb9lh+uow6jTyxGpIx5&#xA;RMWFXKGx2KuxVSuba3uoHguI1lhkFHjYVBwxkYmxzQQCKLHru1udH+Is1xpf+/WPKWAf5Z6vH/ld&#xA;R3r1zb6fVDJsdpff+15/X9lV68fyV1ZWUMpDKwqrDcEHuMyXQkN4odirsVdirsVdiq2SRY1BILFi&#xA;FRFBZmZjRVVRuSTsAMlGJJoM4QMjQTSOP9BcZ51SXzHKlYIDR47GNxTk1NmlYf0Hw1LZO0A7MCOC&#xA;P9JLfiLM7s0kkjF5ZXNWZj1Zj45jSkSbLrMmQzNl2RYLXTnxIZkdGDxyIeLo67hlI6EZKMiDYZ48&#xA;hgbCMIfWHaSNVTzEi1mhFEj1CNB9tOyzqOo7/KhXJIGQebsyI542NpBBxSpInJa9SGUghlYGhVgd&#xA;wQdiDmKQQaLq5wMTRXYGLsVdirsVaZlVSzEBQKknYADFVGw099XkW6uAV0pCGt4Dsbg9pHH++/5V&#xA;/a6nbMPVarg9Mfq6nu/a9J2b2dwjjmN2S5qneOxV2KuxV2KteV9b0m08wXdtdFRcXRVLa+J+FaAA&#xA;2pJ2U8wWBGzE8T8QFd/2bkjwcPKX3uv1eOV8XRV826xpNzrVnZWxVr+3c+vdqdkUg1tyRszOaHie&#xA;lK9aZLtGcfDMTufxux0sJcV9FPOedk7FXYq7FWiARQ9MVY5qFkdHZrmAV0pjWaIdbck7ug/33/Mv&#xA;7PUbdNrpdTx+mX1dPP8Aa6PtLs7i9cOfVWBBAINQdwR0pmY827FXYq7FXYqtkkWNQSCxYhURQWZm&#xA;Y0VVUbkk7ADJRiSaDOEDI0E0jj/QXGedUl8xypWCA0eOxjcU5NTZpWH9B8NS2TtAOzAjgj/SS34i&#xA;zO7NJJIxeWVzVmY9WY+OY0pEmy6zJkMzZdkWDsVdiq1058SGZHRg8ciHi6Ou4ZSOhGSjIg2GePIY&#xA;GwjCH1h2kjVU8xItZoRRI9QjQfbTss6jqO/yoVySBkHm7MiOeNjaQQcUqSJyWvUhlIIZWBoVYHcE&#xA;HYg5ikEGi6ucDE0V2Bi7FXYqh7a1/TFyyN/xy7dqTHtPIv8Auv8A1F/a8Tt45jarUeGKH1H7Hfdl&#xA;6C/3kvgyUAAUGwHQZp3om8VdirsVdiqSaxrBBa1tWow2mmH7Piqn+bxPb59LIxrcsox4vckhRCnA&#xA;qChFCpG1PCmESN31cjhFV0cEQKEUAKNgBsB8sTIk2eaOEVXRPdI1cuVtrlv3nSKU/tex/wAr9eCU&#xA;b3DRKPD7k5yti7FXYq7FWiARQ7g9RirGbi1Oj3SxD/jl3DUtz/viQ/7qP+Q37Hgfh8M3Ol1HiCj9&#xA;Q+15ztXQV+8jy6onMh0TsVdiq2SRY1BILFiFRFBZmZjRVVRuSTsAMlGJJoM4QMjQTSOP9BcZ51SX&#xA;zHKlYIDR47GNxTk1NmlYf0Hw1LZO0A7MCOCP9JLfiLM7s0kkjF5ZXNWZj1Zj45jSkSbLrMmQzNl2&#xA;RYOxV2KuxV2KrXTnxIZkdGDxyIeLo67hlI6EZKMiDYZ48hgbCMYPrDtJGqp5iRazQiiR6hGg+2nZ&#xA;Z1XqO/yoVySBkHm7IiOeNjaQQUUqSpyWvUqysCGVgaMrKdwQdiDmKRTrJRMTRX4GKGuPXubiPTrZ&#xA;ik04LSzD/dUI2Z/9Y/ZX3+WQy5BCPEXYdn6Q5p7/AEhkVrbQWtvHbwIEhiUKijsBmjlIyNnm9eAA&#xA;KCrkUuxV2KuxVJda1ZlraWr0fpNKOqj+Vf8AK9+3z6WRAG5ZRjxe5JAAAABQDoMSXIAdil2KuIBF&#xA;DiCgi080jVy5W2uW/edIpT+17H/K/XjKN7hx5R4fcnOVsXYq7FXYqpXVrBdW0ltcIHhlUq6nuDko&#xA;SMTY5hEogiix239e2uJNOumLzwjlFMf92wk0V/8AWH2W99++bzFkGSPEHkO0NGcM9vpKJybr1ksq&#xA;xqCQWLEKiKCzMzGiqqjcsT0GEAk0GUIGRoJrHH+guM86pL5jlSsMBo8VjG4pyamzSsP6D4alsraA&#xA;doOHBH+kUt+IszuzSSSMXllc1ZmPVmPjmNKRJsusyZDM2XZFg7FXYq7FXYq7FXYqtdOfEhmR0YPH&#xA;Ih4ujruGUjoRkoyINhnjyGBsIxlfWHaSNVTzEi1mhFEj1CNB9tOyzqOo7/6tCuSQMg83ZERzxsbS&#xA;CXTXkMNq9w9eMdQy0PPkDx4cevLl8NPHMbhN064YpGXDW6ZaHp0lrbtPcgfXroiS5I347fDGD4IN&#xA;vnU980uqz+JLb6Ryez0mmGGAiEzzGcl2KuxV2KpNq+rlC1tbN+86Syj9n2H+V+rLIxrcsox4vckY&#xA;AAoMSXIAp2KXYq7FXYq4gEUOIKCLTzSNXLlba5b950ilP7Xsf8r9eMo3uHHlHh9yc5WxdirsVdiq&#xA;W65psl3brLb0F9akyWpOwJp8Ubf5Ljb7j2zJ0ufw5b/SebjavTjLAxKWW93FPbpOgb94QojoS/Ov&#xA;H0+I358vhp45uhGzQeNOGQnwVumwU6Cyyyqk/maZKwQH44rCJ9ub02aRh9/QfDyY5IqAdiBHBGz9&#xA;SXIrDkzu0ssjF5ZXNXdz1ZjmNKRJsusyZDM2V2RYOxV2KuxV2KuxV2KuxV2KrXTnxIZkdGDxyIeL&#xA;o67hlI6EZKMiDYZ48hgbCIkhTWJ4rj0h+n7R/XltUokWoKikeoi/ZE8f2qd6eFON2WHiwIGxd5pM&#xA;0JSE63CZ2t1DdQLNCao1eoIIINCrA7gg7EHpnM5MZgeE8w9BGQkLCrkEuxV2KpNq+rlC1tbN+86S&#xA;yj9n2H+V+rLIxrcsox4vckYAAoMSXIAp2KXYq7FXYq7FXYq4gEUOIKCLTzSNXLlba5b950ilP7Xs&#xA;f8r9eMo3uHHlHh9yc5WxdirsVUbu7htIDNKTSoVVUFmZmNFRVG7Mx2AyePHKcuGPNEpCIsoJYItC&#xA;me6aJX8y3pM8VoTzh09ZFCeo4Bo0rAfSa0oOTHpsUBigAdy8/qs8YyM63KCRCpd3dpZpWLzTOau7&#xA;nqzH/PwG2UykSbLo8mQzNldkWDsVdirsVdirsVdirsVdirsVdirTKSVZWKSRsHikXZkddwynxGSj&#xA;Ig2GePIYGwmUckl/I91aoq60q8r6xWipeoop60NdlmUdR36HsQdRp45490g9Dotbe4+IVY761ktf&#xA;rSv+58aGoNePEr9rly240rXbrnPnDMT4K9TuuMVxXsvka7tpYY7+1e0+sitszlSHoKlCVJ4yAb8T&#xA;26VoaZGo0M8ceI7j7mrHqIzNJXq+rlC1rbN+86Syj9n2H+V+rMeMa3LkxjfuSMAAUGJLkAU7FLsV&#xA;cSAKnpihekEzxrKeEMLgMkkzFeQboyxoHlKns3Ch7E5mjRkC5kR+9xTqwTUAZOa3nVGkXhPEgJd4&#xA;GLEAdWMbrHNxHUtwoO5GJ0RIuEhL71GrA+sGKwEEAg1B3BGYRFOUDbsUuxVxAIocQUEWnujasZCL&#xA;W5b97/uqQ/tjwP8AlD8cZRvcOPKNI9r+EMfhcwLIIXugp9FZT0jZ+nL+O3UgZaNJkMOOtmk5o8XD&#xA;e6+6uobWFppmogoAAKkk7BVA3JJ2AGU48ZmeGPNnKQiLKHkuZtNkW4uI0fX5F5WVm/xJYROCPWmp&#xA;sZXHQfQNuRzotPp44I98i6TWazqfgEtRCpd3dpZpWLzTOau7nqzH/PwG2RlIk2XnsmQzNldkWDsV&#xA;dirsVdirsVdirsVdirsVdirsVdirviDK6M0ckbB4pUNGVh0ZT45KMiDYZ48hgbCbaZeWsusxarLb&#xA;B7+FWN/bRg0m6AX0EfQyxrVZEHxcTtWgrlwMZerq7vBqBkjt8k68469pEuhSW8ATUp72L1LaOJuQ&#xA;Veq3BZd1CEVUjckfDv0jmyRhG5OTigZS2ebRikajly2HxePv9OcxI2XooiguwMnYq7FV8KIzvJIA&#xA;0cChhGwqryuaRqwOxAAd6HY8aHYnM3SgQjLIenL3uHqSZSGMdefuad3d2d2Lu5LO7GpJPUknqcxJ&#xA;SMjZ5uVGIiKDSsyMroxV1IZWUkEEbggjcEYIyINjmsogiiunRQY50AVbnnzRQFVZouPqcQAAAyyI&#xA;/wDrMaUFMzdT64RydTsfe4un9Ejj6DcLMwXMdirsVWyFAFZ+QiV0aXgQr+mrAvwY7BuNeJPQ5dpz&#xA;ETHFyac4Jga5vWYbzysnlYzqYV0BYSrqw+AJ9lkdCOXPlsVI5FtuudNYq+jz1G6ebWuvraXr3P1S&#xA;SrP6egvduHS1VqjnOvUy02SrH+UmtSdbptRg45CH1ff7nL1uHNjxCchYH43V0QqXd3aWaVi80zmr&#xA;u56sx/z8BtlspEmy8nkyGZsrsiwdirsVdirsVdirsVdirsVdirsVdirsVdiq1ZI3LBWDFDRwCCQf&#xA;A4U0u+IMrozRyRsHilQ0ZWHRlPjhjIg2GWPIYGwjraR76SSe1iSPXEUvfWEYCR30Y6zwA7LMK/Ev&#xA;fof2Ww6jTxzx7pB6HR6wcx8Qlt9YxTRfpDT/AI4nqZoQCCCDRiFO4YH7S9a++aKUSDwy2kHe4soq&#xA;xySwEEAg1B6HIOS7FLsVVICWS5grQuqTqP5jbCQFR/zznd/kpzOwevDKI5jdw83pyxkeXJTzBcx2&#xA;KqtwxEdrb1+KMS3Djw+siIID78IOf+qwzOzDgwxieZNuHiPFllIcgKUswXMdiriQASTQDck4gITK&#xA;y06KGIahqPwRJQw25BJLE/CWXqWJ+ylOvvsLIgk8Md5H8fguNlyCrP0ta/pzxenNMp/SsjrcnSE4&#xA;8YoVVlWS4NeP1hq/D1p0Hds289IRg8Pi3P4r3Oq/lCGLKJyG343St7uK6jMFsqzzSDi0Lg0QdCZQ&#xA;d1A8Dv2zSYNFk46Nxrr+p3ms7Uw48XHYlfId6aW6LbwQW7y83VQgZz8TlRud83x3fOpHiJNK2Bg7&#xA;FXYq7FXYq7FXYq7FXYq7FXYq7FXYqpMTMeK8/S5GMmMgSSyAVMMJOwIG7udkHvQZYAIjilydho9G&#xA;ZkEhE3llJHbQs4hhEKkJLBFxFuOvBgo5ywfzlquD8YPVcow6+OWXDIV3O61OgBh3qEcjFmjkX054&#xA;6epHUNTkKqysNmRhurDYjLpwMS81lxGBotuhYo6O0U0TB4ZkNHRx0ZT/AJ+B2wRkQbDHHkMDYTK3&#xA;mk1CZ7iBFTXFXnfWSUWO+jUU9eAE0WZf2l79D+y2HUaeOeO20g9DotYOY+ISvUNPjlj+v2HxxPUy&#xA;xAEEEH4iF6gg/aX+OaKUSDwy2kHe48gqxySwEEAg1B6HIOS7FLjWqsrFHQho5FNGVlNQynsQcniy&#xA;GEuIc2GTGJiiqCaBz+/iaJu8lqqOp/54O0IT/YycfBV6ZmGWDJubgfscURzQ2FSH2tmW3T/eeJ5X&#xA;6iS6VERf+eCNNz+mQDxVhtgEsGPcXM/YpjmnsaiPtUiWZ3d2LySMXkkbdmZjUsT4nMXLllOXEebk&#xA;48YgKDsrbHEgAkmgG5JxAQmun6fHBH+kNQ+CNKNDCwNa1+FmXqWJ+yv8ek4xJPDHeR/H9pcbJkFW&#xA;eSZXM76fLHPPGr64y87Gyf4o7KNtvXnANDMw+yv0D9ps3un08cEd95F0Wt1g5n4BLUQqXd3aWaVi&#xA;80zmru56sx/z8BtglIk2XnsmQzNla7kMI4lDTuCwUkIoVRVnkc7IiDdmPTDCBkWeHCchoIi2sXe0&#xA;lKwxXCygcnuEKyXFDX4W+3boP91cfiB+Nqn4cpydoQxy4QLHV6TB2fUEOnNAORZ4SxjjmcBXDgVM&#xA;MyjZZVG+3wuPiXbpfKII4o7xLo9XpDjNjl9yplbguxV2KuxV2KuxV2KuxV2KuxV2KrJkZ4XRGKMy&#xA;kBx2J74QaLKJAIJ3TPTYIAolHH1QojCqKJEg3Ecakmi1361Y7sSc1evyzlKpcuj2GgnjnC48+qOz&#xA;Bc5J7/Tlj4NGwihU0hlP/HuXbcEftW7sfiXqh+Je4O60Wr4/3c+fQur12jjKN9FBTKGkjmjMU8Lt&#xA;FPESDxdDQio2I8D4ZkyjRp5fLjMJUWnQsUdHaKaJg8MyGjo46Mp/z8DtjGRBsIx5DA2EfHdXF9M9&#xA;zBGBrCLyv9PQBVvY12+s2w7TKPtp36fynDqNPHPGxtIPRaLWgixy6hLr6xhmh/SOnfvIJKtJGo3r&#xA;3ZR1BB+0v8c0UokHhltIO8x5BVjklgIIBBqD0OQcl2KXYq7FXYq4kAEk0A3JOICE0sLCG3h/SOo/&#xA;u4o6NFEw3B/ZZl68q/ZX+PScYknhjvI/j+0uNkyCrPJHzzzWk0dzcxg6wR6mn6fJ8SWaNsLm5A6z&#xA;H9hO33kb3T6eOCNneRdHrdaALPwCBRCpd3dpZpWLzTOau7nqzH/PwG2CUiTZedyZDM2VypPLNFbW&#xA;6erc3DenBGTxBahbcnoAqkn2GGEeI0yw4jOVBW06wSZfULepbOVcyEUNyymqOR+zCp3jj/2TfF0w&#xA;9brOH93D4l6rRaOMIgpxmndil2qQqFeSMqs0q+lLG4LRyoDUB1BU1Q/EjAhlPQ9Qdj2fmnGVDePV&#xA;13aWTHCFy59PNAopVFVmLkAAsepI77ZsS8iTu3gQ7FXYq7FXYq7FXYq7FXYq7FXYqqQzPE4dT8x2&#xA;OV5cQmKLkabUywy4opot3AYGmZgiIKyFjQLTrXNPPDKMuF6/TaqGWHEPj5JVf3VybpUX4LiPi8cT&#xA;Cv1f9pZZlOxn7xxH7H23+LiubrTaYYRZ3mfsdZr9eAKClFEsScVqdySzEsxZjVmYnckk1JOTJvd5&#xA;2UjI2V2BitdCxR0dopomDwzIaOjjoyn/AD8DtkoyINhnjyGBsI2Gea7llubaIDWFHqahp0fwpeou&#xA;xubYHpMP207/AHEnUaeOeNjaQei0WtBFjl1CX31jDPANR04+pBJVpI1Br13ZR1BB+0v8c0UokHhl&#xA;tIO8x5BXkloIIBBqD0OQcl2KXYq4kAEk0A3JOICE0sLCG3h/SOo/u4o6NHGwO2+zMOvKv2V/426T&#xA;AJPDHeRcbJk6nkjp5prSeO6uYwdXI56dp0m6WSNsLm5A6zH9hO33nN7ptPHBGzvIuj1utA36dAgk&#xA;QqXd3aWaVi80zmru56sx/wA/AbYJSJNl53JkMzZXZFgtkTkBRmR1IaORDxdGU1VlI6EHJRkQbDOE&#xA;zE2ETZX7BnV1CzKGknhQUV1G7XECjpTrLEOn2l2qMq1WlGYcUfr+96TQ64SFH+xMZbuFIhIGDhxV&#xA;OJryB6EHwzT4sEpypz9VrIYY2fgO9KpZXlcu53P4DNxjxiAoPIajUSyy4pLMm0OxV2KuxV2KuxV2&#xA;KuxV2KuxV2KuxV2KtMGPEqxRkZXR16hkPJTvUbEVwxNG23FmlA2Go40jWijqSzE7ksxqWYncknck&#xA;4k2wlIyNldgYuxV2KrXQko6O0csbB4ZkNHRx0ZTkoyINhnjyGBsI6Caa7lkuraIDVgDJqOnxiiXi&#xA;Lsbm2B6TD9tP2vuOOp08c8bG0h+N3otFrNr6dUvv7GGaH9I6cRJBJVpI1/FlHUEftL/HNGYkHhlt&#xA;IO9x5BXklgIIqOmQchxIAJJoBuScVTSwsYLeIajqREUSUaGN9t/2WYd2/lX+PSYiSeGO8j+PwXGy&#xA;ZBzPJHSXU9tKl1cQj9JsBJpthKKraIa0urpf9+t/uuPt86kbzTaeOCNneZdJrdZQvp0QSIVLu7tL&#xA;NKxeaZzV3c9WY/5+A2xlIk2XnMmQzNldkWDsVdiq14w/E1KujB45FJVlddwysNwRkoyINhnCZibD&#xA;UMSxRhFJIqTU+LEsdhQDc9AKDtgJs2nJllM2V+BrdirsVdirsVdirsVdirsVdirsVdirsVdirsVd&#xA;irsVdirsVdikBNfqSGCNKlJYyJI5kNHSQdHVh3/hsds0/wCakMnGPwHtNPpIwxCHz96HlFvq7Lcv&#xA;Y2UcrRW0lzIYOTSzTW8c7uSGTb96BT2zb6zW+FICr2towYOMXaTapbwxSQlYYoZQ9xBL9XVo43WN&#xA;beWNvTLMAwFwVJHXMfVzGTDGdUSf1uVpAY5DG9q/U7S7aKWWVmhhmkeS3t1NyrSoiOlzK5WMMq8m&#xA;+rqKnpjpZjHhlOrIP6l1YMsoje1frTeNRpVw1zb2tl6/oTtDKLejxSrHVHQlmpTuAN8yNJrfEJFV&#xA;Qtxc2n4QN0UbKMQSICzySEySTOeTvIf2mY9T/DYbZqPzUjk45H+xv1GkjPEYD4e9Ks3DxTsVdirs&#xA;VdirsVdirsVdirsVdirsVdirsVdirsVdirsVdirsVdirsVdirsVdiqrbLynjB6chlWc1A+5ytFHi&#xA;zRHmnOaN7ZL9F/3n/wCeVl/3T7bNl2p/eD+r+kuLo/pPvRuhXdhba8ZL2SOOMteKjSUpy9HTz1Pe&#xA;gOZ+jnGOGJl5/eXGzwlLIQBa3W7qxudfMlk6SRCSzVmjpx5C3v8AuPamDWTjLDIx7x+hcEJRyC9k&#xA;Jqv2R/xhuP8Ak0cwezfql/VcnVch70wzWuUks68Z5B2DH9eb3CbgD5PD6uPDlkP6RU8scd2KuxV2&#xA;KuxV2KuxV2KuxV2KuxV2KuxV2KuxV2KuxV2KuxV2KuxV2KuxV2KqtswWeMnpyFcqzxuBHk5Winw5&#xA;ok96c5o3tkqt5hbW8HpMCzW9uLmOeG8jMcsNvHA6ho7eZGX91XlXN3qsWPNIS4wNvL9br8M5wBHC&#xA;Uv11THcW8MksU1wxmupTbFnhRLhLdYVEjKnJmSDmdu+Q1kBjwxx3ZB/W5GjJlkMq2r9TtE+OeWJJ&#xA;oIbgPFdRC5Z443jt4rlZv3ipJxKLMG3GHSYxkwyx3Rv9SNYTDIJVtX60bNcvdJzqjIYZFiEMd45d&#xA;5V4pRntoUC715FslgxY8PEeMHb8dWnJOWSvSU4zSOeks7BpnYdCxp9+b3CKgB5PD6qfFlkf6RU8s&#xA;cd2KuxV2KuxV2KuxV2KuxV2KuxV2KuxV2KuxV2KuxV2KuxV2KuxV2KuxV2KuxVN7ScTRA1+NdmH8&#xA;c0uow8EvJ7Ls/VjNj/pDn+PNXyhzmIXkU8ckLvE4SW0snibixDKLOFSQQP5lIzddoYZymDEE7OPo&#xA;csYwIJrduygnla4kSJzHBZ3skzlSFVTZzICSR/M4GPZ+CcZkyFCl12aMoAA3uy7NK5ChdziKI0Px&#xA;tsv9cv0+Ljl5OD2hqhhxn+ceX48kozdPGuxV2KuxV2KuxV2KuxV2KuxV2KuxV2KuxV2KuxV2KuxV&#xA;2KuxV2KuxV2KuxV2KuxVfFK8Th0ND+vIZMYmKLdg1EsUuKPNM4L2GUUJ4P4H+BzU5dLKHmHqtL2l&#xA;jyjc8Mu4/ocllEiLGkkyxIKRxLPMI0HgiB+Kj5DJfns385yvy8O5zWUTKVd5mRhR4zNKUYeDKW4s&#xA;PY4/nc3LiT+Xh3OmvIYh15N/KMji00p+QcXU9pYsQ58Uu4JZNM8rl3O/Ydhm2x4xAUHldRqJZpcU&#xA;lmTaHYq7FXYq7FXYq7FXYq7FXYq7FXYq7FVf6je/8s8v/AN/TJcJZ8Eu531G9/5Z5f8AgG/pjwle&#xA;CXc76je/8s8v/AN/THhK8Eu531G9/wCWeX/gG/pjwleCXc76je/8s8v/AADf0x4SvBLud9Rvf+We&#xA;X/gG/pjwleCXc76je/8ALPL/AMA39MeErwS7nfUb3/lnl/4Bv6Y8JXgl3O+o3v8Ayzy/8A39MeEr&#xA;wS7nfUb3/lnl/wCAb+mPCV4JdzvqN7/yzy/8A39MeErwS7nfUb3/AJZ5f+Ab+mPCV4JdzvqN7/yz&#xA;y/8AAN/THhK8Eu531G9/5Z5f+Ab+mPCV4JdzvqN7/wAs8v8AwDf0x4SvBLuXLbakv2Ypl+SsMgcI&#xA;PMfY2wyZY/SZD5ua11FvtQzN81Y4jEByH2InPLL6jI/Nb9Rvf+WeX/gG/pk+EtfBLud9Rvf+WeX/&#xA;AIBv6Y8JXgl3O+o3v/LPL/wDf0x4SvBLud9Rvf8Alnl/4Bv6Y8JXgl3O+o3v/LPL/wAA39MeErwS&#xA;7nfUb3/lnl/4Bv6Y8JXgl3O+o3v/ACzy/wDAN/THhK8Eu531G9/5Z5f+Ab+mPCV4JdzvqN7/AMs8&#xA;v/AN/THhK8Eu531G9/5Z5f8AgG/pjwleCXc76je/8s8v/AN/THhK8Eu531G9/wCWeX/gG/pjwleC&#xA;Xc76je/8s8v/AADf0x4SvBLud9Rvf+WeX/gG/pjwleCXc76je/8ALPL/AMA39MeErwS7n//Z</xmpGImg:image>
               </rdf:li>
            </rdf:Alt>
         </xmp:Thumbnails>
      </rdf:Description>
      <rdf:Description rdf:about=""
            xmlns:xmpTPg="http://ns.adobe.com/xap/1.0/t/pg/"
            xmlns:stDim="http://ns.adobe.com/xap/1.0/sType/Dimensions#"
            xmlns:xmpG="http://ns.adobe.com/xap/1.0/g/">
         <xmpTPg:MaxPageSize rdf:parseType="Resource">
            <stDim:w>11.011054</stDim:w>
            <stDim:h>9.944444</stDim:h>
            <stDim:unit>Inches</stDim:unit>
         </xmpTPg:MaxPageSize>
         <xmpTPg:NPages>1</xmpTPg:NPages>
         <xmpTPg:HasVisibleTransparency>False</xmpTPg:HasVisibleTransparency>
         <xmpTPg:HasVisibleOverprint>False</xmpTPg:HasVisibleOverprint>
         <xmpTPg:PlateNames>
            <rdf:Seq>
               <rdf:li>Cyan</rdf:li>
               <rdf:li>Magenta</rdf:li>
               <rdf:li>Yellow</rdf:li>
               <rdf:li>Black</rdf:li>
            </rdf:Seq>
         </xmpTPg:PlateNames>
         <xmpTPg:SwatchGroups>
            <rdf:Seq>
               <rdf:li rdf:parseType="Resource">
                  <xmpG:groupName>Default Swatch Group</xmpG:groupName>
                  <xmpG:groupType>0</xmpG:groupType>
                  <xmpG:Colorants>
                     <rdf:Seq>
                        <rdf:li rdf:parseType="Resource">
                           <xmpG:swatchName>K=60</xmpG:swatchName>
                           <xmpG:mode>GRAY</xmpG:mode>
                           <xmpG:type>PROCESS</xmpG:type>
                           <xmpG:gray>153</xmpG:gray>
                        </rdf:li>
                     </rdf:Seq>
                  </xmpG:Colorants>
               </rdf:li>
            </rdf:Seq>
         </xmpTPg:SwatchGroups>
      </rdf:Description>
      <rdf:Description rdf:about=""
            xmlns:dc="http://purl.org/dc/elements/1.1/">
         <dc:format>image/svg+xml</dc:format>
      </rdf:Description>
      <rdf:Description rdf:about=""
            xmlns:xmpMM="http://ns.adobe.com/xap/1.0/mm/"
            xmlns:stRef="http://ns.adobe.com/xap/1.0/sType/ResourceRef#"
            xmlns:stEvt="http://ns.adobe.com/xap/1.0/sType/ResourceEvent#">
         <xmpMM:RenditionClass>proof:pdf</xmpMM:RenditionClass>
         <xmpMM:DerivedFrom rdf:parseType="Resource">
            <stRef:instanceID>xmp.iid:088011740720681183D1F6C98FE099FE</stRef:instanceID>
            <stRef:documentID>xmp.did:088011740720681183D1F6C98FE099FE</stRef:documentID>
            <stRef:originalDocumentID>xmp.did:048011740720681183D1F6C98FE099FE</stRef:originalDocumentID>
            <stRef:renditionClass>proof:pdf</stRef:renditionClass>
         </xmpMM:DerivedFrom>
         <xmpMM:DocumentID>xmp.did:098011740720681183D1F6C98FE099FE</xmpMM:DocumentID>
         <xmpMM:InstanceID>xmp.iid:098011740720681183D1F6C98FE099FE</xmpMM:InstanceID>
         <xmpMM:OriginalDocumentID>xmp.did:048011740720681183D1F6C98FE099FE</xmpMM:OriginalDocumentID>
         <xmpMM:History>
            <rdf:Seq>
               <rdf:li rdf:parseType="Resource">
                  <stEvt:action>saved</stEvt:action>
                  <stEvt:instanceID>xmp.iid:048011740720681183D1F6C98FE099FE</stEvt:instanceID>
                  <stEvt:when>2026-03-05T10:32:53-08:00</stEvt:when>
                  <stEvt:softwareAgent>Adobe Illustrator CS6 (Macintosh)</stEvt:softwareAgent>
                  <stEvt:changed>/</stEvt:changed>
               </rdf:li>
               <rdf:li rdf:parseType="Resource">
                  <stEvt:action>saved</stEvt:action>
                  <stEvt:instanceID>xmp.iid:098011740720681183D1F6C98FE099FE</stEvt:instanceID>
                  <stEvt:when>2026-03-06T14:52:48-08:00</stEvt:when>
                  <stEvt:softwareAgent>Adobe Illustrator CS6 (Macintosh)</stEvt:softwareAgent>
                  <stEvt:changed>/</stEvt:changed>
               </rdf:li>
            </rdf:Seq>
         </xmpMM:History>
      </rdf:Description>
   </rdf:RDF>
</x:xmpmeta>
                                                                                                    
                                                                                                    
                                                                                                    
                                                                                                    
                                                                                                    
                                                                                                    
                                                                                                    
                                                                                                    
                                                                                                    
                                                                                                    
                                                                                                    
                                                                                                    
                                                                                                    
                                                                                                    
                                                                                                    
                                                                                                    
                                                                                                    
                                                                                                    
                                                                                                    
                                                                                                    
                           
<?xpacket end="w"?>
	</metadata>
<rect class="st0" width="792.796" height="716"/>
<g>
	<rect y="234" class="st0" width="792.796" height="482"/>
	<path class="st4" d="M335.171,566.805c3.753,3.543,7.436,7.164,11.288,10.596c1.981,1.767,2.261,3.861,2.253,6.287
		c-0.053,16.495-0.057,32.99-0.027,49.485c0.011,6.349,0.501,6.793,6.854,6.831c3.999,0.024,8.009,0.185,11.994-0.056
		c3.858-0.231,5.373,1.122,5.228,5.12c-0.265,7.322-0.015,14.661-0.166,21.99c-0.082,3.996,1.538,5.806,5.6,5.775
		c12.163-0.092,24.326-0.094,36.489-0.021c3.691,0.021,4.978-1.722,4.972-5.222c-0.014-7.662,0.287-15.326,0.214-22.987
		c-0.033-3.475,1.313-4.769,4.729-4.645c4.492,0.164,9-0.113,13.493,0.039c4.07,0.139,5.557-1.531,5.515-5.642
		c-0.166-16.16,0.038-32.324-0.152-48.484c-0.049-4.124,0.737-7.263,4.235-9.903c3.562-2.688,6.6-6.072,9.866-9.151
		c7.101,7.27,10.723,16.491,13.296,25.927c7.006,25.697,4.805,50.302-11.307,72.38c-11.577,15.866-27.49,25.758-46.629,29.513
		c-28.813,5.652-54.025-2.421-74.234-23.512c-20.184-21.064-25.397-46.535-18.201-74.575
		C323.275,585.661,327.84,575.517,335.171,566.805z"/>
	<path class="st4" d="M191.173,548.588c-4.88-3.212-8.592-7.715-12.709-11.741c-9.713-9.498-19.183-19.246-28.747-28.894
		c9.37-9.234,18.806-18.398,28.053-27.75c2.458-2.485,4.099-2.435,6.511,0.01c11.463,11.613,23.014,23.143,34.656,34.578
		c2.463,2.419,2.426,3.999-0.065,6.405C209.533,530.218,200.39,539.44,191.173,548.588z"/>
	<path class="st4" d="M641.299,507.897c-13.345,14.007-26.779,27.923-41.253,40.782c-9.036-9.082-17.994-18.244-27.161-27.19
		c-2.595-2.531-2.872-4.172-0.119-6.833c11.487-11.101,22.885-22.3,34.07-33.703c3.025-3.083,4.816-2.666,7.584,0.17
		C623.252,490.173,632.321,498.99,641.299,507.897z"/>
	<path class="st3" d="M641.299,507.897c-8.978-8.907-18.047-17.725-26.879-26.774c-2.768-2.836-4.559-3.253-7.584-0.17
		c-11.186,11.403-22.583,22.603-34.07,33.703c-2.753,2.661-2.476,4.302,0.119,6.833c9.167,8.946,18.125,18.108,27.161,27.19
		c-2.744,5.068-4.07,5.307-7.964,1.405c-9.291-9.31-18.489-18.717-27.915-27.888c-3.109-3.025-3.145-5.205-0.03-8.24
		c14.187-13.83,28.255-27.781,42.271-41.784c2.754-2.75,5.065-3.299,8.02-0.341c9.648,9.658,19.449,19.166,29.094,28.828
		C647.057,504.203,646.428,505.963,641.299,507.897z"/>
	<path class="st3" d="M191.173,548.588c9.216-9.147,18.36-18.37,27.698-27.392c2.491-2.406,2.528-3.986,0.065-6.405
		c-11.642-11.436-23.192-22.965-34.656-34.578c-2.412-2.444-4.054-2.495-6.511-0.01c-9.247,9.352-18.683,18.516-28.053,27.75
		c-4.909-1.441-5.75-3.377-2.46-6.681c9.983-10.025,20.144-19.872,30.203-29.821c2.518-2.489,4.93-2.435,7.373,0.002
		c14.492,14.459,28.979,28.921,43.46,43.39c2.237,2.235,1.891,4.253-0.31,6.424c-9.835,9.701-19.554,19.521-29.397,29.216
		C195.315,553.703,194.032,553.287,191.173,548.588z"/>
	<path class="st0" d="M0,246.545c20.187-26.183,42.683-50.289,66.417-73.24c25.693-24.847,53.279-47.366,83.697-66.259
		c55.695-34.592,116.33-55.14,181.355-62.321c53.753-5.937,107.441-5.035,160.831,4.571
		c65.199,11.732,124.533,36.983,178.008,76.199c37.576,27.557,70.205,60.286,101.113,94.892c7.43,8.317,14.887,16.623,21.375,25.728
		c-10.186,11.676-21.664,22.084-32.617,33.004c-42.689,42.557-85.348,85.143-127.553,128.182c-1.156,1.178-2.484,2.189-3.732,3.277
		c-3.008-6.715-7.164-12.781-11.1-18.93c-23.518-36.758-50.191-70.873-83.877-99.039c-23.566-19.703-49.469-35.236-78.594-45.455
		c-40.614-14.247-81.01-13.804-121.196,1.066c-30.768,11.387-58.3,28.455-82.671,50.33c-26.524,23.807-48.964,51.191-68.447,81.014
		c-6.733,10.307-13.493,20.596-19.083,31.592c-8.181-6.854-15.194-14.893-22.704-22.426c-45.4-45.541-90.76-91.123-136.123-136.703
		C3.341,250.26,1.697,248.375,0,246.545z"/>
	<path class="st4" d="M403.213,284.68c3.348-3.47,6.622-7.016,10.069-10.385c2.208-2.157,2.576-4.089,0.244-6.357
		c-4.777-4.645-9.49-9.356-14.245-14.024c-1.958-1.921-3.912-2.288-6.05-0.123c-4.564,4.623-9.172,9.205-13.836,13.728
		c-2.499,2.424-2.127,4.484,0.222,6.776"/>
	<path class="st7" d="M384.722,289.247c-35.64,35.987-71.285,71.969-106.949,107.933c-10.912,11.004-21.889,21.942-32.821,32.927
		c-4.369,4.39-4.356,5.162,0.01,9.722c1.268,1.324,2.579,2.605,3.875,3.901c40.997,41.012,81.998,82.019,122.979,123.045
		c1.751,1.752,3.807,3.276,4.794,5.685c-6.802,0.926-13.636,0.217-20.452,0.409c-2.311,0.065-3.535-1.577-4.937-2.991
		c-40.82-41.16-81.518-82.443-122.525-123.417c-20.031-20.015-40.227-39.862-59.898-60.232c-1.723-1.784-3.228-3.779-4.834-5.676
		c5.59-10.997,12.35-21.285,19.083-31.592c19.483-29.823,41.922-57.207,68.447-81.015c24.371-21.875,51.903-38.943,82.671-50.329
		c40.186-14.871,80.582-15.313,121.196-1.066c29.125,10.218,55.026,25.751,78.594,45.455c33.686,28.165,60.359,62.281,83.877,99.038
		c3.935,6.149,8.091,12.215,11.099,18.931c-9.072,9.493-18.007,19.125-27.245,28.455c-51.271,51.781-102.756,103.353-153.76,155.395
		c-6.545,6.678-12.981,10.168-22.113,9.074c-3.45-0.413-6.966-0.272-10.452-0.384c1.31-3.019,3.966-4.894,6.18-7.109
		c42.043-42.081,84.083-84.166,126.27-126.103c3.463-3.443,3.385-5.392-0.034-8.726c-8.7-8.483-16.913-17.463-25.484-26.083
		c-29.725-29.893-59.533-59.701-89.277-89.575c-9.985-10.028-19.87-20.155-29.801-30.238"/>
	<path class="st1" d="M389.72,284.68c4.938-3.494,11.125-2.305,13.494,0c9.931,10.083,19.816,20.21,29.801,30.238
		c29.744,29.874,59.552,59.683,89.277,89.575c8.571,8.62,16.784,17.6,25.484,26.083c3.419,3.334,3.497,5.282,0.034,8.726
		c-42.188,41.937-84.227,84.021-126.27,126.103c-2.214,2.216-4.87,4.091-6.18,7.109c-1.321,0.132-2.644,0.391-3.962,0.37
		c-2.865-0.045-4.404,1.202-4.403,4.132c0.009,19.65,0.02,39.302,0.042,58.953c0.002,1.8,0.521,3.63,2.562,3.67
		c3.666,0.071,3.786,2.281,3.741,5.011c-0.099,5.994-0.143,11.992-0.033,17.985c0.051,2.794-1.047,3.864-3.813,3.84
		c-8.826-0.078-17.654-0.083-26.479,0.025c-2.827,0.034-3.758-1.075-3.694-3.845c0.15-6.491,0.058-12.989,0.054-19.484
		c-0.001-1.725-0.064-3.371,2.417-3.456c2.861-0.098,3.445-2.078,3.444-4.501c-0.006-19.151-0.015-38.304,0.041-57.456
		c0.01-3.301-1.231-5.002-4.72-4.833c-1.305,0.063-2.631-0.298-3.947-0.466c-0.987-2.408-3.043-3.933-4.794-5.685
		c-40.982-41.026-81.983-82.033-122.979-123.045c-1.296-1.296-2.607-2.577-3.875-3.901c-4.366-4.56-4.379-5.332-0.01-9.722
		c10.932-10.984,21.909-21.923,32.821-32.927c35.664-35.964,71.309-71.945,106.949-107.933 M396.66,487.611
		c20.95-0.02,38.666-17.688,38.634-38.529c-0.031-20.779-17.471-38.11-38.37-38.129c-21.572-0.019-38.831,17.242-38.735,38.741
		C358.283,470.619,375.542,487.631,396.66,487.611z M404.616,605.846c0.081-11.672,0.166-9.763-9.361-9.882
		c-7.667-0.096-7.756-0.019-7.667,7.522c0.158,13.27-1.532,11.121,11.29,11.495c4.269,0.124,6.276-1.242,5.759-5.656
		C404.502,608.181,404.616,607.007,404.616,605.846z"/>
	<path class="st4" d="M413.365,605.998c-0.002-7.498,0.108-14.997-0.053-22.491c-0.07-3.252,1.132-4.479,4.364-4.382
		c5.16,0.156,10.331,0.123,15.492-0.008c2.896-0.074,4.229,0.847,4.207,3.982c-0.111,15.493-0.106,30.988-0.045,46.481
		c0.011,2.93-1.039,4.29-4.07,4.229c-5.329-0.11-10.664-0.123-15.993-0.026c-3.096,0.057-3.986-1.401-3.941-4.295
		C413.448,621.66,413.367,613.828,413.365,605.998z"/>
	<path class="st4" d="M378.711,606.483c0,7.487-0.154,14.979,0.064,22.459c0.11,3.775-1.377,5.011-4.979,4.87
		c-4.817-0.189-9.649-0.106-14.472-0.007c-2.98,0.062-4.09-1.2-4.071-4.185c0.099-15.473,0.109-30.946,0.031-46.419
		c-0.015-3.032,1.154-4.146,4.133-4.064c4.987,0.138,9.985,0.136,14.972-0.02c3.227-0.101,4.446,1.188,4.389,4.405
		c-0.135,7.651-0.043,15.307-0.043,22.96C378.727,606.483,378.719,606.483,378.711,606.483z"/>
	<path class="st3" d="M403.838,295.305c-6.319,5.439-6.319,5.439-14.619-1.064c-2.983-3.115-5.89-6.31-8.977-9.321
		c-2.35-2.292-2.721-4.353-0.222-6.776c4.664-4.522,9.271-9.104,13.836-13.728c2.138-2.165,4.092-1.798,6.05,0.123
		c4.755,4.668,9.468,9.38,14.245,14.024c2.333,2.269,1.964,4.2-0.244,6.357C410.46,288.289,407.186,291.835,403.838,295.305z"/>
	<path class="st3" d="M396.66,487.611c-21.117,0.02-38.377-16.992-38.47-37.917c-0.096-21.499,17.163-38.76,38.735-38.741
		c20.898,0.019,38.338,17.35,38.37,38.129C435.325,469.924,417.609,487.592,396.66,487.611z M396.595,481.442
		c18.217-0.115,32.645-14.675,32.534-32.831c-0.106-17.41-14.917-31.721-32.681-31.578c-18.147,0.146-32.465,14.824-32.274,33.087
		C364.352,467.268,379.139,481.553,396.595,481.442z"/>
	<path class="st5" d="M404.616,605.846c0,1.161-0.114,2.335,0.021,3.479c0.518,4.414-1.49,5.78-5.759,5.656
		c-12.821-0.374-11.131,1.774-11.29-11.495c-0.09-7.541,0-7.618,7.667-7.522C404.782,596.083,404.697,594.174,404.616,605.846z"/>
	<path class="st1" d="M396.595,481.442c-17.457,0.11-32.243-14.175-32.422-31.322c-0.19-18.263,14.127-32.94,32.274-33.087
		c17.765-0.143,32.575,14.168,32.681,31.578C429.24,466.768,414.812,481.327,396.595,481.442z"/>
	<path class="st2" d="M13.772,239.472C73.515,159.729,197.609,36,397.023,36c195.811,0,320.678,122.06,381.454,201.99"/>
	<path class="st3" d="M13.43,229.816l2.181,2.129c42.588,42.793,83.025,83.424,125.649,126.18
		c7.51,7.533,14.523,15.572,22.704,22.427c1.606,1.896,3.111,3.892,4.834,5.676c19.672,20.37,39.868,40.218,59.898,60.232
		c41.007,40.974,81.705,82.257,122.525,123.417c1.402,1.414,2.626,3.057,4.937,2.991c6.816-0.192,13.65,0.517,20.452-0.409
		c1.316,0.168,2.642,0.529,3.947,0.466c3.489-0.169,4.729,1.532,4.72,4.833c-0.056,19.152-0.047,38.305-0.041,57.456
		c0.001,2.423-0.583,4.403-3.444,4.501c-2.482,0.085-2.418,1.731-2.417,3.456c0.004,6.495,0.096,12.993-0.054,19.484
		c-0.063,2.77,0.867,3.879,3.694,3.845c8.825-0.108,17.653-0.104,26.479-0.025c2.767,0.024,3.865-1.046,3.813-3.84
		c-0.11-5.993-0.066-11.991,0.033-17.985c0.045-2.729-0.076-4.939-3.741-5.011c-2.041-0.04-2.56-1.87-2.562-3.67
		c-0.023-19.651-0.034-39.303-0.042-58.953c-0.001-2.93,1.538-4.177,4.403-4.132c1.318,0.021,2.641-0.238,3.962-0.37
		c3.486,0.111,7.002-0.029,10.452,0.384c9.132,1.094,15.568-2.396,22.113-9.074c51.004-52.042,102.489-103.613,153.76-155.395
		c9.238-9.33,18.173-18.962,27.247-28.453c1.247-1.09,2.574-2.102,3.73-3.28c42.205-43.038,84.864-85.625,127.554-128.182
		l19.474-18.788l6.581,7.829c-34.245,34.289-64.931,65.033-99.186,99.312c-75.382,75.435-150.8,150.833-226.193,226.257
		c-1.172,1.172-2.227,2.46-3.335,3.694c-3.267,3.079-6.304,6.463-9.866,9.151c-3.499,2.641-4.284,5.779-4.235,9.903
		c0.19,16.16-0.014,32.324,0.152,48.484c0.042,4.11-1.444,5.78-5.515,5.642c-4.493-0.152-9.001,0.125-13.493-0.039
		c-3.415-0.124-4.761,1.17-4.729,4.645c0.072,7.661-0.228,15.325-0.214,22.987c0.006,3.5-1.281,5.243-4.972,5.222
		c-12.163-0.072-24.326-0.07-36.489,0.021c-4.062,0.03-5.682-1.779-5.6-5.775c0.15-7.329-0.1-14.668,0.166-21.99
		c0.145-3.998-1.37-5.352-5.228-5.12c-3.985,0.24-7.995,0.08-11.994,0.056c-6.354-0.038-6.843-0.482-6.854-6.831
		c-0.03-16.495-0.026-32.99,0.027-49.485c0.008-2.426-0.272-4.521-2.253-6.287c-3.852-3.432-7.535-7.053-11.288-10.596
		c-19.847-19.961-39.667-39.949-59.545-59.878C184.877,415.944,97.418,328.286,6.662,237.311L13.43,229.816z M413.367,605.998
		c0,7.83,0.081,15.662-0.042,23.49c-0.045,2.894,0.845,4.352,3.941,4.295c5.329-0.097,10.664-0.084,15.993,0.026
		c3.032,0.062,4.082-1.299,4.07-4.229c-0.061-15.493-0.066-30.988,0.045-46.481c0.022-3.136-1.31-4.057-4.207-3.982
		c-5.162,0.131-10.333,0.164-15.492,0.008c-3.231-0.098-4.434,1.13-4.364,4.382C413.473,591.001,413.363,598.5,413.367,605.998z
		 M378.711,606.483c0.008,0,0.016,0,0.023,0c0-7.653-0.091-15.309,0.043-22.96c0.057-3.217-1.162-4.506-4.389-4.405
		c-4.987,0.155-9.984,0.157-14.972,0.02c-2.979-0.081-4.148,1.032-4.133,4.064c0.078,15.473,0.067,30.946-0.031,46.419
		c-0.019,2.984,1.091,4.246,4.071,4.185c4.823-0.1,9.655-0.183,14.472,0.007c3.602,0.141,5.089-1.095,4.979-4.87
		C378.558,621.462,378.711,613.971,378.711,606.483z"/>
	<path class="st3" d="M565.214,446.319c-6.32,5.439-6.32,5.439-14.619-1.064c-2.983-3.115-5.891-6.31-8.977-9.321
		c-2.35-2.292-2.722-4.353-0.223-6.776c4.664-4.522,9.271-9.104,13.836-13.728c2.138-2.165,4.092-1.798,6.05,0.123
		c4.755,4.668,9.468,9.38,14.245,14.024c2.332,2.269,1.964,4.2-0.244,6.357C571.835,439.304,568.562,442.85,565.214,446.319z"/>
	<path class="st3" d="M236.627,443.319c-6.32,5.439-6.32,5.439-14.619-1.064c-2.983-3.115-5.89-6.31-8.977-9.321
		c-2.35-2.292-2.721-4.353-0.222-6.776c4.664-4.522,9.271-9.104,13.836-13.728c2.138-2.165,4.092-1.798,6.05,0.123
		c4.755,4.668,9.468,9.38,14.245,14.024c2.332,2.269,1.964,4.2-0.244,6.357C243.249,436.304,239.975,439.85,236.627,443.319z"/>
	<path class="st6" d="M585.351,466.48c-6.32,5.439-6.32,5.439-14.619-1.064c-2.984-3.115-5.891-6.31-8.977-9.321
		c-2.35-2.292-2.723-4.353-0.223-6.776c4.664-4.522,9.271-9.104,13.836-13.728c2.137-2.165,4.092-1.798,6.049,0.123
		c4.756,4.668,9.469,9.38,14.246,14.024c2.332,2.269,1.963,4.2-0.244,6.357C591.972,459.465,588.698,463.011,585.351,466.48z"/>
</g>
</svg>
